<?xml version="1.0" encoding="utf-8"?>
<!-- Generator: Adobe Illustrator 24.0.1, SVG Export Plug-In . SVG Version: 6.00 Build 0)  -->
<svg version="1.1" id="Layer_1" xmlns="http://www.w3.org/2000/svg" xmlns:xlink="http://www.w3.org/1999/xlink" x="0px" y="0px"
	 viewBox="0 0 512 512" style="enable-background:new 0 0 512 512;" xml:space="preserve">
<style type="text/css">
	.st0{fill:#F7B362;}
</style>
<g id="Layer_22">
	<path class="st0" d="M464,8H160c-22.1,0-40,17.9-40,40v24H48C25.9,72,8,89.9,8,112v240c0,22.1,17.9,40,40,40h112v48h-16
		c-22.1,0-40,17.9-40,40v16c0,4.4,3.6,8,8,8h208c4.4,0,8-3.6,8-8v-16c0-22.1-17.9-40-40-40h-16v-48h112c22.1,0,40-17.9,40-40v-56h40
		c22.1,0,40-17.9,40-40V48C504,25.9,486.1,8,464,8z M160,24h304c13.3,0,24,10.7,24,24v8H136v-8C136,34.7,146.7,24,160,24z M312,480
		v8H120v-8c0-13.3,10.7-24,24-24h144C301.3,456,312,466.7,312,480z M256,440h-80v-48h80V440z M384,376H48c-13.3,0-24-10.7-24-24v-24
		h384v24C408,365.3,397.3,376,384,376z M408,312H24V112c0-13.3,10.7-24,24-24h72v168c0,22.1,17.9,40,40,40h248V312z M464,280H160
		c-13.3,0-24-10.7-24-24V72h352v184C488,269.3,477.3,280,464,280z"/>
	<path class="st0" d="M376,344h16v16h-16V344z"/>
	<path class="st0" d="M344,344h16v16h-16V344z"/>
	<path class="st0" d="M312,344h16v16h-16V344z"/>
	<path class="st0" d="M464,88H160c-4.4,0-8,3.6-8,8v160c0,4.4,3.6,8,8,8h304c4.4,0,8-3.6,8-8V96C472,91.6,468.4,88,464,88z M216,232
		h32v-16h-32v-16h16v-16h-16v-16h16v-16h-16v-16h48v112h-48V232z M336.9,182.6c-1.8,0.9-3.8,1.3-5.8,1.4H325c-2,0-4-0.5-5.8-1.4
		c-4.4-2.2-7.2-6.7-7.1-11.6c0-3.7,2.1-7.1,5.4-8.8c5.9-2.9,9.8-8.6,10.6-15l10.6,10.6c3.5,3.5,5.4,8.3,5.4,13.2
		C344,175.9,341.3,180.4,336.9,182.6L336.9,182.6z M320,199.4c1.6,0.3,3.3,0.5,5,0.6h6.1c1.7-0.1,3.3-0.3,5-0.6V248h-16L320,199.4z
		 M392,184h16v64h-16V184z M395.1,168l4.9-14.7l4.9,14.7H395.1z M456,248h-32v-72c0.1-0.8,0.1-1.7,0-2.6l-16-48
		c-1.4-4.2-5.9-6.5-10.1-5.1c-2.4,0.8-4.3,2.7-5.1,5.1l-16,48c-0.4,0.8-0.7,1.7-0.8,2.6v72h-24v-57c5.1-5.4,8-12.5,8-19.9
		c0-9.2-3.6-18-10.2-24.5l-24-24c-2.3-2.3-5.7-2.9-8.7-1.7c-3,1.1-5,3.9-5.1,7.1v17.2c0,1.1-0.7,2.2-1.7,2.7
		c-8.8,4.4-14.3,13.3-14.3,23.1c0,7.4,2.9,14.6,8,19.9v57h-24V128c0-4.4-3.6-8-8-8h-64c-4.4,0-8,3.6-8,8v120h-32V104h288V248z"/>
</g>
</svg>
